<?xml version="1.0" encoding="iso-8859-1"?>
<!-- Generator: Adobe Illustrator 19.0.0, SVG Export Plug-In . SVG Version: 6.00 Build 0)  -->
<svg version="1.1" id="Capa_1" xmlns="http://www.w3.org/2000/svg" xmlns:xlink="http://www.w3.org/1999/xlink" x="0px" y="0px"
	 viewBox="0 0 464.601 464.601" style="enable-background:new 0 0 464.601 464.601;" xml:space="preserve" fill="#ffffff">
<g>
	<g>
		<path d="M224.3,112c-4.418,0-8-3.582-8-8c0-11.313,5.979-17.291,10.344-21.656c3.922-3.922,5.656-5.845,5.656-10.341
			c0-4.498-1.734-6.421-5.657-10.344c-4.365-4.365-10.343-10.343-10.343-21.657s5.979-17.292,10.343-21.658
			C230.566,14.421,232.3,12.497,232.3,8c0-4.418,3.582-8,8-8s8,3.582,8,8c0,11.314-5.978,17.292-10.343,21.657
			c-3.923,3.923-5.657,5.847-5.657,10.344c0,4.497,1.734,6.421,5.657,10.344c4.364,4.365,10.343,10.344,10.343,21.658
			c0,11.313-5.979,17.291-10.344,21.656c-3.922,3.922-5.656,5.845-5.656,10.341C232.3,108.418,228.718,112,224.3,112z"/>
	</g>
	<g>
		<path d="M264.3,112c-4.418,0-8-3.582-8-8c0-11.313,5.979-17.291,10.344-21.656c3.922-3.922,5.656-5.845,5.656-10.341
			c0-4.498-1.734-6.421-5.657-10.344c-4.365-4.365-10.343-10.343-10.343-21.657c0-4.418,3.582-8,8-8s8,3.582,8,8
			c0,4.497,1.734,6.421,5.657,10.344c4.364,4.365,10.343,10.344,10.343,21.658c0,11.313-5.979,17.291-10.344,21.656
			c-3.922,3.922-5.656,5.845-5.656,10.341C272.3,108.418,268.718,112,264.3,112z"/>
	</g>
	<g>
		<path d="M184.3,112c-4.418,0-8-3.582-8-8c0-11.313,5.979-17.291,10.344-21.656c3.922-3.922,5.656-5.845,5.656-10.341
			c0-4.498-1.734-6.421-5.657-10.344c-4.365-4.365-10.343-10.343-10.343-21.657c0-4.418,3.582-8,8-8s8,3.582,8,8
			c0,4.497,1.734,6.421,5.657,10.344c4.364,4.365,10.343,10.344,10.343,21.658c0,11.313-5.979,17.291-10.344,21.656
			c-3.922,3.922-5.656,5.845-5.656,10.341C192.3,108.418,188.718,112,184.3,112z"/>
	</g>
	<g>
		<path d="M376.3,216h-288c-22.056,0-40-17.944-40-40v-48c0-4.418,3.582-8,8-8s8,3.582,8,8v48c0,13.233,10.767,24,24,24h288
			c13.233,0,24-10.767,24-24v-48c0-4.418,3.582-8,8-8s8,3.582,8,8v48C416.3,198.056,398.356,216,376.3,216z"/>
	</g>
	<g>
		<path d="M368.3,135c-4.418,0-8-3.582-8-8v-15c0-13.234-10.767-24-24-24h-57c-4.418,0-8-3.582-8-8s3.582-8,8-8h57
			c22.056,0,40,17.944,40,40v15C376.3,131.418,372.718,135,368.3,135z"/>
	</g>
	<g>
		<path d="M96.3,135c-4.418,0-8-3.582-8-8v-15c0-22.056,17.944-40,40-40h68c4.418,0,8,3.582,8,8s-3.582,8-8,8h-68
			c-13.233,0-24,10.767-24,24v15C104.3,131.418,100.718,135,96.3,135z"/>
	</g>
	<g>
		<path d="M424.3,136h-384c-4.418,0-8-3.582-8-8s3.582-8,8-8h384c4.418,0,8,3.582,8,8S428.718,136,424.3,136z"/>
	</g>
	<g>
		<path d="M72.438,464.601c-0.339,0-0.682-0.021-1.027-0.066c-4.382-0.562-7.479-4.57-6.918-8.952l25.258-197
			c0.562-4.382,4.561-7.484,8.952-6.918c4.382,0.562,7.479,4.57,6.917,8.952l-25.256,197
			C79.845,461.654,76.404,464.601,72.438,464.601z"/>
	</g>
	<g>
		<g>
			<path d="M100.32,263.202c-1.017,0-2.05-0.066-3.069-0.196c-6.361-0.815-12.021-4.058-15.941-9.131
				c-3.92-5.073-5.629-11.369-4.813-17.727l3.739-29.165c0.562-4.382,4.561-7.485,8.952-6.918c4.382,0.562,7.479,4.57,6.917,8.953
				l-3.739,29.166c-0.271,2.12,0.299,4.218,1.605,5.909c1.306,1.691,3.192,2.772,5.313,3.043c4.403,0.564,8.399-2.597,8.953-6.917
				l4.261-33.235c0.561-4.382,4.56-7.485,8.952-6.918c4.382,0.562,7.479,4.57,6.917,8.952l-4.26,33.235
				C122.575,254.196,112.349,263.202,100.32,263.202z"/>
		</g>
	</g>
	<g>
		<path d="M392.291,464.58c-3.966,0-7.407-2.946-7.925-6.984l-25.254-196.979c-0.563-4.382,2.535-8.39,6.917-8.952
			c4.39-0.566,8.39,2.535,8.952,6.918l25.254,196.979c0.563,4.383-2.535,8.391-6.917,8.953
			C392.972,464.558,392.629,464.58,392.291,464.58z"/>
	</g>
	<g>
		<g>
			<path d="M364.411,263.202c-12.028,0-22.254-9.006-23.784-20.95l-4.261-33.235c-0.563-4.382,2.535-8.39,6.917-8.952
				c4.391-0.567,8.391,2.535,8.952,6.918l4.261,33.235c0.555,4.322,4.534,7.48,8.954,6.917c4.374-0.561,7.478-4.577,6.916-8.953
				l-3.738-29.165c-0.563-4.383,2.535-8.391,6.917-8.953c4.39-0.567,8.391,2.535,8.952,6.918l3.739,29.166
				c1.683,13.126-7.628,25.174-20.753,26.857C366.462,263.136,365.429,263.202,364.411,263.202z"/>
		</g>
	</g>
	<g>
		<path d="M232.3,192c-13.233,0-24-10.766-24-24s10.767-24,24-24c4.418,0,8,3.582,8,8s-3.582,8-8,8c-4.411,0-8,3.589-8,8
			s3.589,8,8,8c2.848,0,5.505-1.535,6.935-4.006c2.211-3.825,7.106-5.132,10.931-2.919c3.824,2.212,5.131,7.106,2.919,10.931
			C248.804,187.404,240.84,192,232.3,192z"/>
	</g>
	<g>
		<path d="M381.3,392h-298c-4.418,0-8-3.582-8-8s3.582-8,8-8h298c4.418,0,8,3.582,8,8S385.718,392,381.3,392z"/>
	</g>
	<g>
		<path d="M375.3,368h-286c-4.418,0-8-3.582-8-8s3.582-8,8-8h286c4.418,0,8,3.582,8,8S379.718,368,375.3,368z"/>
	</g>
</g>
<g>
</g>
<g>
</g>
<g>
</g>
<g>
</g>
<g>
</g>
<g>
</g>
<g>
</g>
<g>
</g>
<g>
</g>
<g>
</g>
<g>
</g>
<g>
</g>
<g>
</g>
<g>
</g>
<g>
</g>
</svg>
