<?xml version="1.0" encoding="iso-8859-1"?>
<!-- Generator: Adobe Illustrator 17.1.0, SVG Export Plug-In . SVG Version: 6.00 Build 0)  -->
<!DOCTYPE svg PUBLIC "-//W3C//DTD SVG 1.1//EN" "http://www.w3.org/Graphics/SVG/1.1/DTD/svg11.dtd">
<svg version="1.1" id="Capa_1" xmlns="http://www.w3.org/2000/svg" xmlns:xlink="http://www.w3.org/1999/xlink" x="0px" y="0px"
	 viewBox="0 0 463 463" style="enable-background:new 0 0 463 463;" xml:space="preserve" fill="#ffffff">
<g>
	<path d="M439.5,0h-416C10.542,0,0,10.542,0,23.5v416C0,452.458,10.542,463,23.5,463h64c50.689,0,99.865-9.929,146.164-29.512
		c44.715-18.913,84.872-45.987,119.354-80.47s61.557-74.64,80.47-119.354C453.071,187.365,463,138.189,463,87.5v-64
		C463,10.542,452.458,0,439.5,0z M448,87.5c0,96.293-37.499,186.822-105.588,254.912C274.322,410.501,183.793,448,87.5,448h-64
		c-4.687,0-8.5-3.813-8.5-8.5v-416c0-4.687,3.813-8.5,8.5-8.5h416c4.687,0,8.5,3.813,8.5,8.5V87.5z"/>
	<path d="M375.5,40H87.5C61.308,40,40,61.308,40,87.5V375.5c0,26.191,21.309,47.5,47.5,47.5c60.751,0,120.304-16.448,172.22-47.566
		c1.981-1.188,3.305-3.222,3.588-5.515c0.283-2.292-0.507-4.588-2.141-6.221c-5.243-5.243-8.131-12.214-8.131-19.629
		s2.888-14.386,8.131-19.629l26.333-26.333l18.697,18.697c1.464,1.464,3.384,2.197,5.303,2.197s3.839-0.732,5.303-2.197
		c2.929-2.929,2.929-7.678,0-10.606L298.106,287.5l26.333-26.333c10.824-10.823,28.435-10.823,39.259,0
		c1.634,1.634,3.93,2.421,6.221,2.141c2.293-0.283,4.327-1.606,5.515-3.588C406.552,207.803,423,148.25,423,87.5
		C423,61.308,401.692,40,375.5,40z M366.866,244.614c-16.516-10.409-38.66-8.427-53.033,5.946L287.5,276.893l-22.697-22.697
		c-2.929-2.929-7.678-2.929-10.606,0c-2.929,2.929-2.929,7.678,0,10.606l22.697,22.697l-26.333,26.333
		c-14.374,14.374-16.356,36.517-5.946,53.033C196.805,393.8,142.669,408,87.5,408c-17.92,0-32.5-14.579-32.5-32.5V87.5
		C55,69.579,69.579,55,87.5,55H375.5c17.92,0,32.5,14.58,32.5,32.5C408,142.669,393.8,196.805,366.866,244.614z"/>
	<path d="M335.5,280c-1.98,0-3.91,0.8-5.3,2.2c-1.4,1.39-2.2,3.33-2.2,5.3c0,1.98,0.8,3.91,2.2,5.3c1.39,1.4,3.33,2.2,5.3,2.2
		c1.97,0,3.91-0.8,5.3-2.2c1.4-1.39,2.2-3.33,2.2-5.3c0-1.97-0.8-3.91-2.2-5.3C339.41,280.8,337.48,280,335.5,280z"/>
	<path d="M287.5,328c-1.97,0-3.91,0.8-5.3,2.2c-1.4,1.39-2.2,3.33-2.2,5.3c0,1.98,0.8,3.91,2.2,5.3c1.39,1.4,3.33,2.2,5.3,2.2
		c1.97,0,3.91-0.8,5.3-2.2c1.4-1.39,2.2-3.33,2.2-5.3c0-1.97-0.8-3.91-2.2-5.3C291.41,328.8,289.47,328,287.5,328z"/>
	<path d="M231.5,72c-1.97,0-3.91,0.8-5.3,2.2c-1.4,1.39-2.2,3.33-2.2,5.3c0,1.97,0.8,3.91,2.2,5.3c1.39,1.4,3.33,2.2,5.3,2.2
		c1.97,0,3.91-0.8,5.3-2.2c1.4-1.39,2.2-3.33,2.2-5.3c0-1.97-0.8-3.91-2.2-5.3C235.41,72.8,233.47,72,231.5,72z"/>
	<path d="M79.5,224c-1.97,0-3.91,0.8-5.3,2.2c-1.4,1.39-2.2,3.32-2.2,5.3c0,1.97,0.8,3.91,2.2,5.3c1.39,1.4,3.33,2.2,5.3,2.2
		c1.97,0,3.91-0.8,5.3-2.2c1.4-1.39,2.2-3.33,2.2-5.3c0-1.98-0.8-3.91-2.2-5.3C83.41,224.8,81.47,224,79.5,224z"/>
	<path d="M79.5,192c-1.97,0-3.91,0.8-5.3,2.2c-1.4,1.39-2.2,3.33-2.2,5.3c0,1.97,0.8,3.91,2.2,5.3c1.39,1.4,3.33,2.2,5.3,2.2
		c1.97,0,3.91-0.8,5.3-2.2c1.4-1.39,2.2-3.33,2.2-5.3c0-1.98-0.8-3.91-2.2-5.3C83.41,192.8,81.47,192,79.5,192z"/>
	<path d="M79.5,256c-1.98,0-3.91,0.8-5.3,2.2c-1.4,1.39-2.2,3.33-2.2,5.3c0,1.98,0.8,3.91,2.2,5.3c1.39,1.4,3.32,2.2,5.3,2.2
		c1.97,0,3.91-0.8,5.3-2.2c1.4-1.39,2.2-3.32,2.2-5.3s-0.8-3.91-2.2-5.3C83.41,256.8,81.47,256,79.5,256z"/>
	<path d="M199.5,72c-1.97,0-3.91,0.8-5.3,2.2c-1.4,1.39-2.2,3.33-2.2,5.3c0,1.97,0.8,3.91,2.2,5.3c1.39,1.4,3.33,2.2,5.3,2.2
		c1.97,0,3.91-0.8,5.3-2.2c1.4-1.39,2.2-3.33,2.2-5.3c0-1.97-0.8-3.91-2.2-5.3C203.41,72.8,201.47,72,199.5,72z"/>
	<path d="M263.5,72c-1.97,0-3.91,0.8-5.3,2.2c-1.4,1.39-2.2,3.32-2.2,5.3c0,1.97,0.8,3.91,2.2,5.3c1.39,1.4,3.33,2.2,5.3,2.2
		c1.97,0,3.91-0.8,5.3-2.2c1.4-1.39,2.2-3.33,2.2-5.3c0-1.97-0.8-3.91-2.2-5.3C267.41,72.8,265.47,72,263.5,72z"/>
</g>
<g>
</g>
<g>
</g>
<g>
</g>
<g>
</g>
<g>
</g>
<g>
</g>
<g>
</g>
<g>
</g>
<g>
</g>
<g>
</g>
<g>
</g>
<g>
</g>
<g>
</g>
<g>
</g>
<g>
</g>
</svg>
