<?xml version="1.0" encoding="iso-8859-1"?>
<!-- Generator: Adobe Illustrator 19.0.0, SVG Export Plug-In . SVG Version: 6.00 Build 0)  -->
<svg version="1.1" id="Layer_1" xmlns="http://www.w3.org/2000/svg" xmlns:xlink="http://www.w3.org/1999/xlink" x="0px" y="0px"
	 viewBox="0 0 512.213 512.213" style="enable-background:new 0 0 512.213 512.213;" xml:space="preserve" fill="#ffffff">
<g transform="translate(1 1)">
	<g>
		<path d="M502.307,460.013H485.24c-52.907,0-85.333-11.093-85.333-68.267c0-82.164-79.88-124-128-136.598V195.48h42.667
			c5.12,0,8.533-3.413,8.533-8.533c0-23.893-18.773-42.667-42.667-42.667h-8.533v-25.6h8.533c3.413,0,6.827-2.56,7.68-5.973
			c1.707-3.413,0-6.827-2.56-9.387L149.027,0.92c-3.413-2.56-6.827-2.56-10.24,0L2.253,103.32c-2.56,1.707-3.413,5.973-2.56,9.387
			s4.267,5.973,7.68,5.973h8.533v213.333c0,5.12,3.413,8.533,8.533,8.533h8.533V502.68c0,5.12,3.413,8.533,8.533,8.533H75.64
			c5.12,0,8.533-3.413,8.533-8.533V340.547h8.533h8.533v42.667v51.2v51.2v17.067c0,5.12,3.413,8.533,8.533,8.533
			s8.533-3.413,8.533-8.533v-8.533h51.2v8.533c0,5.12,3.413,8.533,8.533,8.533s8.533-3.413,8.533-8.533v-17.067v-51.2v-51.2v-42.667
			h8.533h8.533V502.68c0,5.12,3.413,8.533,8.533,8.533h34.133c5.12,0,8.533-3.413,8.533-8.533V340.547h8.533
			c5.12,0,8.533-3.413,8.533-8.533v-22.756c24.725,7.779,76.8,30.428,76.8,82.49c0,54.613,23.893,119.467,136.533,119.467h17.067
			c5.12,0,8.533-3.413,8.533-8.533v-34.133C510.84,463.427,507.427,460.013,502.307,460.013z M280.44,161.347
			c11.093,0,20.48,6.827,23.893,17.067h-32.427v-17.067H280.44z M143.907,17.987l110.933,83.627H32.973L143.907,17.987z
			 M67.107,494.147H50.04v-153.6h17.067V494.147z M169.507,425.88h-51.2v-34.133h51.2V425.88z M118.307,442.947h51.2v34.133h-51.2
			V442.947z M169.507,374.68h-51.2v-34.133h51.2V374.68z M178.04,323.48h-68.267h-8.533v-93.867
			c0-23.893,18.773-42.667,42.667-42.667c23.893,0,42.667,18.773,42.667,42.667v93.867H178.04z M237.773,494.147h-17.067v-153.6
			h17.067V494.147z M254.84,323.48h-8.533h-34.133h-8.533v-93.867c0-33.28-26.453-59.733-59.733-59.733
			c-33.28,0-59.733,26.453-59.733,59.733v93.867H75.64H41.507h-8.533v-204.8H254.84v34.133v34.133v75.093v35.84V323.48z
			 M493.773,494.147h-8.533c-80.213,0-119.467-33.28-119.467-102.4c0-66.56-68.267-92.16-93.867-99.84v-18.773
			c43.52,11.947,110.933,48.64,110.933,118.613c0,75.093,52.053,85.333,102.4,85.333h8.533V494.147z"/>
	</g>
</g>
<g>
</g>
<g>
</g>
<g>
</g>
<g>
</g>
<g>
</g>
<g>
</g>
<g>
</g>
<g>
</g>
<g>
</g>
<g>
</g>
<g>
</g>
<g>
</g>
<g>
</g>
<g>
</g>
<g>
</g>
</svg>
