<?xml version="1.0" encoding="iso-8859-1"?>
<!-- Generator: Adobe Illustrator 16.0.0, SVG Export Plug-In . SVG Version: 6.00 Build 0)  -->
<!DOCTYPE svg PUBLIC "-//W3C//DTD SVG 1.1//EN" "http://www.w3.org/Graphics/SVG/1.1/DTD/svg11.dtd">
<svg version="1.1" id="Capa_1" xmlns="http://www.w3.org/2000/svg" xmlns:xlink="http://www.w3.org/1999/xlink" x="0px" y="0px"
	 width="257.121px" height="257.121px" viewBox="0 0 257.121 257.121" style="enable-background:new 0 0 257.121 257.121;"
	 xml:space="preserve">
<g>
	<path d="M246.309,174.969c0-0.261-0.185-0.47-0.217-0.697c0.017-0.137,0.152-0.213,0.152-0.369
		c0-23.712-19.548-43.008-43.589-43.008c-22.525,0-40.879,17.02-43.115,38.7c-3.15-4.04-7.639-6.717-12.804-6.717h-10.704V12.914
		C136.032,5.206,131.051,0,123.646,0c-7.402,0-12.389,5.198-12.389,12.914V162.87h-10.722c-4.358,0-8.253,1.964-11.272,4.961v-45.4
		c0-1.739-1.423-3.162-3.166-3.162H27.156c-1.745,0-3.164,1.431-3.164,3.162v1.495H12.862v16.843h11.131v0.493
		c0,1.747,1.418,3.158,3.164,3.158h16.533v5.258c0,7.013-5.663,12.695-12.615,12.695c-1.745,0-3.162,1.427-3.162,3.158
		c0,1.747,1.417,3.157,3.162,3.157c10.441,0,18.951-8.539,18.951-19.011v-5.258h8.053v33.614H29.912
		c-10.538,0-19.1,8.628-19.1,19.176v56.745c0,1.747,1.421,3.153,3.162,3.153h72.129c0.103,0,0.156-0.1,0.252-0.116
		c0.096,0.017,0.148,0.116,0.241,0.116h74.094c1.747,0,3.165-1.435,3.165-3.153v-51.58l8.877,52.117
		c0.261,1.519,1.57,2.629,3.105,2.629h53.11c1.519,0,2.821-1.095,3.114-2.581l14.138-76.39c0.116-0.589-0.152-1.143-0.353-1.671
		C245.956,175.958,246.309,175.497,246.309,174.969z M123.629,6.336c2.262,0,6.055,0.84,6.055,6.578v115.881h-12.106V12.914
		C117.57,7.176,121.369,6.336,123.629,6.336z M117.57,135.11h12.115v27.752H117.57V135.11z M30.311,138.092v-12.501h52.615v37.78
		H64.399v-22.105c0-1.739-1.423-3.157-3.166-3.157L30.311,138.092L30.311,138.092z M29.896,184.362h31.33
		c1.743,0,3.166-1.419,3.166-3.154v-11.521h18.526v38.211l-0.301-0.124c-4.276,6.993-11.461,18.706-31.018,7.373
		c-18.077-10.499-29.066-7.35-34.49-4.047v-13.906C17.124,190.133,22.854,184.362,29.896,184.362z M17.124,250.765v-31.943
		c0.25-0.16,0.579-0.16,0.781-0.437c0.356-0.429,8.958-10.283,30.541,2.225c6.907,4.031,12.726,5.562,17.617,5.562
		c7.732,0,13.116-3.879,16.863-8.047v32.641H17.124z M157.516,250.765h-11.981v-32.396c0-1.739-1.419-3.142-3.166-3.142
		c-1.743,0-3.162,1.422-3.162,3.142v32.396h-12.415v-32.396c0-1.739-1.417-3.142-3.162-3.142c-1.744,0-3.162,1.422-3.162,3.142
		v32.396h-12.411v-32.396c0-1.739-1.423-3.142-3.168-3.142c-1.739,0-3.162,1.422-3.162,3.142v32.396H89.749v-68.928
		c0-6.984,4.825-12.639,10.778-12.639h10.714h24.78h10.699c5.951,0,10.796,5.686,10.796,12.639V250.765L157.516,250.765z
		 M235.228,202.491l-0.06-0.023c-2.3,4.296-6.147,11.477-12.904,13.18c-4.721,1.158-10.471-0.437-17.111-4.837
		c-17.829-11.886-28.846-8.127-34.22-4.416l-3.927-23.015c9.353,4.04,24.901,5.391,35.649,5.391c10.961,0,26.895-1.411,36.163-5.635
		L235.228,202.491z M239.973,174.9c-0.625,2.14-12.647,7.514-37.317,7.514c-24.665,0-36.691-5.374-37.337-7.386
		c0.661-2.12,12.712-7.518,37.337-7.518C227.293,167.511,239.332,172.877,239.973,174.9z M202.655,137.227
		c18.138,0,33.226,12.852,36.528,29.779c-9.205-4.389-25.399-5.807-36.512-5.807c-11.133,0-27.347,1.442-36.556,5.807
		C169.422,150.062,184.514,137.227,202.655,137.227z M226.3,250.765h-47.809l-6.332-37.217c0.413-0.602,8.716-11.333,29.499,2.505
		c6.271,4.18,12.142,6.296,17.504,6.296c1.599,0,3.15-0.192,4.681-0.577c3.606-0.91,6.38-2.922,8.797-5.206L226.3,250.765z"/>
</g>
<g>
</g>
<g>
</g>
<g>
</g>
<g>
</g>
<g>
</g>
<g>
</g>
<g>
</g>
<g>
</g>
<g>
</g>
<g>
</g>
<g>
</g>
<g>
</g>
<g>
</g>
<g>
</g>
<g>
</g>
</svg>
